<?xml version="1.0" encoding="UTF-8" standalone="no"?>
<svg
   id="svg"
   version="1.1"
   width="400"
   height="363.84180790960454"
   viewBox="0, 0, 400,363.84180790960454"
   sodipodi:docname="logo.svg"
   inkscape:version="1.2.1 (9c6d41e410, 2022-07-14)"
   xmlns:inkscape="http://www.inkscape.org/namespaces/inkscape"
   xmlns:sodipodi="http://sodipodi.sourceforge.net/DTD/sodipodi-0.dtd"
   xmlns="http://www.w3.org/2000/svg"
   xmlns:svg="http://www.w3.org/2000/svg">
  <defs
     id="defs25">
    <inkscape:path-effect
       effect="bspline"
       id="path-effect1177"
       is_visible="true"
       lpeversion="1"
       weight="33.333333"
       steps="2"
       helper_size="0"
       apply_no_weight="true"
       apply_with_weight="true"
       only_selected="false" />
    <inkscape:path-effect
       effect="bspline"
       id="path-effect1173"
       is_visible="true"
       lpeversion="1"
       weight="33.333333"
       steps="2"
       helper_size="0"
       apply_no_weight="true"
       apply_with_weight="true"
       only_selected="false" />
    <inkscape:path-effect
       effect="bspline"
       id="path-effect1169"
       is_visible="true"
       lpeversion="1"
       weight="33.333333"
       steps="2"
       helper_size="0"
       apply_no_weight="true"
       apply_with_weight="true"
       only_selected="false" />
  </defs>
  <sodipodi:namedview
     id="namedview23"
     pagecolor="#ffffff"
     bordercolor="#000000"
     borderopacity="0.25"
     inkscape:showpageshadow="2"
     inkscape:pageopacity="0.0"
     inkscape:pagecheckerboard="0"
     inkscape:deskcolor="#d1d1d1"
     showgrid="true"
     showguides="true"
     inkscape:zoom="2"
     inkscape:cx="54.75"
     inkscape:cy="186.5"
     inkscape:window-width="1920"
     inkscape:window-height="1009"
     inkscape:window-x="-8"
     inkscape:window-y="-8"
     inkscape:window-maximized="1"
     inkscape:current-layer="svg">
    <inkscape:grid
       type="xygrid"
       id="grid232" />
  </sodipodi:namedview>
  <path
     style="display:inline;fill:#000000"
     d="M -0.33334253,73.000992 C -0.33335331,16.334312 -0.16668665,8.1676459 4.3339209,4.1671676 8.8345285,0.16668922 17.667686,0.33335256 80.168837,0.33334056 142.66999,0.33332857 258.83433,0.16666524 320.91776,0.25002428 383.0012,0.33338333 391.00104,0.66670999 395.00052,4.500595 399,8.33448 399,15.667667 399.16667,72.002055 c 0.16667,56.334385 0.5,161.665615 0.66666,218.582365 C 400,347.50117 400,356.001 395.75042,360.16717 c -4.24957,4.16618 -12.7494,3.99952 -75.41725,3.91617 C 257.66533,364 140.83433,364 78.417595,363.91668 16.00086,363.83335 8.0010205,363.66669 4.0005102,359.6671 0,355.66751 0,347.83433 -0.08333421,291.33328 -0.16666841,234.83223 -0.33333174,129.66767 -0.33334253,73.000992 Z"
     id="black-border"
     inkscape:path-effect="#path-effect1177"
     inkscape:original-d="M -0.5,24.5 C -0.33233333,16.334333 -0.16566667,8.1676667 0,0 8.83451,0.16767 17.667667,0.33433333 26.5,0.5 142.66999,0.33433 258.83433,0.16766667 375,0 c 8.00116,0.33434 16.001,0.66766667 24,1 10e-4,7.33448 10e-4,14.667667 0,22 0.33434,105.33644 0.66767,210.66767 1,316 10e-4,8.50117 10e-4,17.001 0,25.5 -8.49917,-0.16567 -16.999,-0.33233 -25.5,-0.5 C 257.66533,364.001 140.83433,364.001 24,364 16.00084,363.83433 8.001,363.66767 0,363.5 0.001,355.66751 0.001,347.83433 0,340 -0.16567,234.83223 -0.33233333,129.66767 -0.5,24.5 Z" />
  <rect
     style="fill:#ffffff"
     id="white-background"
     width="348"
     height="271.5"
     x="26"
     y="68.5" />
  <rect
     style="fill:#145ca4;fill-opacity:1"
     id="blue-header"
     width="349"
     height="44.5"
     x="25.5"
     y="24" />
  <rect
     style="display:inline;fill:#145ca4;fill-opacity:1"
     id="blue-button"
     width="99.5"
     height="45"
     x="125"
     y="274.5" />
  <rect
     style="fill:#000000"
     id="black-button"
     width="101.56874"
     height="45.141663"
     x="248.73056"
     y="274.4613" />
  <rect
     style="fill:#000000"
     id="check-black"
     width="73.532326"
     height="76.182159"
     x="50.558662"
     y="179.2124" />
  <rect
     style="fill:#ffffff"
     id="check-white"
     width="24.827913"
     height="25.279331"
     x="75.058662"
     y="205.49173" />
  <rect
     style="fill:#000000"
     id="input-black"
     width="176.14964"
     height="76.230743"
     x="174.69823"
     y="89.380493" />
  <rect
     style="fill:#ffffff"
     id="input-white"
     width="126"
     height="23.5"
     x="199"
     y="116" />
  <path
     style="fill:#000000"
     d="m 55.417153,110.50049 c -3.75044,-3.49945 -4.083773,-10.999448 -0.499877,-14.666622 3.583896,-3.667175 11.083746,-3.500512 15.166627,0.08342 4.08288,3.583934 4.749534,10.583799 8.66672,14.083249 3.917187,3.49946 11.08371,3.49946 15.166489,0.33314 4.082778,-3.16632 5.082759,-9.49953 9.416708,-12.833295 4.33395,-3.333767 12.00046,-3.667093 16.16671,-0.08312 4.16625,3.583969 4.8329,11.083819 8.91674,14.666589 4.08383,3.58277 11.58368,3.24944 15.6666,6.58341 4.08291,3.33397 4.74957,10.33383 0.99996,13.58331 -3.7496,3.24948 -11.9161,2.74949 -16.33325,-0.83339 -4.41715,-3.58289 -5.0838,-10.24942 -9.16679,-13.41665 -4.08299,-3.16723 -11.58284,-2.83391 -15.50001,0.83333 -3.91717,3.66723 -4.250492,10.66709 -8.750029,13.91664 -4.499537,3.24955 -13.16603,2.74956 -17.49989,-1.16671 C 73.5,127.66752 73.5,120.33433 69.917058,116.91714 c -3.582942,-3.41719 -10.749465,-2.9172 -14.499905,-6.41665 z"
     id="small-text"
     inkscape:path-effect="#path-effect1169"
     inkscape:original-d="M 52,114.5 C 51.667667,107.001 51.334333,99.501 51,92 c 7.50115,0.16767 15.001,0.334333 22.5,0.5 0.66768,7.00114 1.334333,14.001 2,21 7.16781,0.001 14.334333,0.001 21.5,0 1.00102,-6.33246 2.001,-12.66567 3,-19 7.66782,-0.33234 15.33433,-0.665667 23,-1 0.66768,7.50115 1.33433,15.001 2,22.5 7.50115,-0.33234 15.001,-0.66567 22.5,-1 0.66768,7.00114 1.33433,14.001 2,21 -8.16583,-0.49901 -16.33233,-0.999 -24.5,-1.5 -0.66568,-6.6658 -1.33233,-13.33233 -2,-20 -7.49915,0.33434 -14.999,0.66767 -22.5,1 -0.33234,7.00114 -0.665667,14.001 -1,21 -8.66584,-0.49901 -17.332333,-0.999 -26,-1.5 0.001,-7.33248 0.001,-14.66567 0,-22 -7.16581,0.50101 -14.332333,1.001 -21.5,1.5 z" />
  <path
     style="fill:#000000"
     d="m 154.00052,184.41719 c 3.66715,-3.91719 11.33381,-3.91719 15.50003,0.0834 4.16622,4.00062 4.83287,12.00046 9.25008,15.99992 4.4172,3.99946 12.5837,3.99946 16.83318,0.3332 4.24949,-3.66627 4.58281,-10.99946 8.33338,-14.83329 3.75057,-3.83383 10.91709,-4.16716 15.00003,-0.33317 4.08294,3.83399 5.08292,11.83383 9.5001,15.91662 4.41719,4.08279 12.25037,4.24946 16.49983,0.58315 4.24945,-3.6663 4.9161,-11.16615 8.75001,-15.16664 3.8339,-4.00049 10.83376,-4.50048 14.66669,-0.83316 3.83292,3.66732 4.49958,11.5005 9.33346,15.49997 4.83389,3.99947 13.83371,4.16613 18.16655,0.4999 4.33285,-3.66623 3.99952,-11.16608 7.66672,-15.08329 3.66719,-3.91721 11.3337,-4.25054 15.49995,-0.66657 4.16625,3.58397 4.8329,11.08382 8.91676,14.83328 4.08386,3.74946 11.58371,3.74946 15.58325,7.41673 3.99954,3.66727 4.49953,11.00046 0.33326,14.49995 -4.16627,3.49948 -12.99943,3.16615 -17.33329,-0.50012 -4.33386,-3.66626 -4.1672,-10.66612 -7.83341,-14.33326 -3.66621,-3.66713 -11.16606,-4.00046 -14.99992,-0.0833 -3.83387,3.91722 -4.00053,12.08372 -8.08338,15.66662 -4.08285,3.58291 -12.08269,2.58293 -16.41654,-1.58334 -4.33384,-4.16627 -5.0005,-11.49946 -9.41684,-14.83336 -4.41634,-3.3339 -12.58284,-2.66725 -17.08336,0.83328 -4.50052,3.50052 -5.33384,9.83373 -9.33342,13.4166 -3.99958,3.58286 -11.1661,4.41617 -15.16648,1.41671 -4.00038,-2.99946 -4.83369,-9.83266 -9.16667,-13.24988 -4.33298,-3.41722 -12.16616,-3.41722 -16.16667,-0.25 -4.00052,3.16721 -4.16718,9.50042 -8.16673,12.58328 -3.99956,3.08285 -11.83274,2.91619 -15.83324,-0.75005 -4.0005,-3.66624 -4.16716,-10.83276 -8.16676,-14.33328 -3.9996,-3.50052 -11.83278,-3.33386 -15.91658,-7.16674 -4.08381,-3.83288 -4.41713,-11.66606 -0.74999,-15.58324 z"
     id="large-text"
     inkscape:path-effect="#path-effect1173"
     inkscape:original-d="m 150,180.5 c 7.66767,0.001 15.33433,0.001 23,0 0.66768,8.00116 1.33433,16.001 2,24 8.16783,0.001 16.33433,0.001 24.5,0 0.33434,-7.33248 0.66767,-14.66567 1,-22 7.16781,-0.33234 14.33433,-0.66567 21.5,-1 1.00102,8.00116 2.001,16.001 3,24 7.83449,0.16767 15.66767,0.33433 23.5,0.5 0.66768,-7.49915 1.33433,-14.999 2,-22.5 7.00114,-0.49901 14.001,-0.999 21,-1.5 0.66768,7.83449 1.33433,15.66767 2,23.5 9.00118,0.16767 18.001,0.33433 27,0.5 -0.33234,-7.49915 -0.66567,-14.999 -1,-22.5 7.66782,-0.33234 15.33433,-0.66567 23,-1 0.66768,7.50115 1.33433,15.001 2,22.5 7.50115,0.001 15.001,0.001 22.5,0 0.50101,7.33448 1.001,14.66767 1.5,22 -8.83251,-0.33234 -17.66567,-0.66567 -26.5,-1 0.16767,-6.99914 0.33433,-13.999 0.5,-21 -7.49915,-0.33234 -14.999,-0.66567 -22.5,-1 -0.16567,8.16783 -0.33233,16.33433 -0.5,24.5 -7.99916,-0.99902 -15.999,-1.999 -24,-3 -0.66568,-7.33248 -1.33233,-14.66567 -2,-22 -8.16583,0.66768 -16.33233,1.33433 -24.5,2 -0.83235,6.33446 -1.66567,12.66767 -2.5,19 -7.16581,0.83435 -14.33233,1.66767 -21.5,2.5 -0.83235,-6.83247 -1.66567,-13.66567 -2.5,-20.5 -7.83249,0.001 -15.66567,0.001 -23.5,0 -0.16567,6.33446 -0.33233,12.66767 -0.5,19 -7.83249,-0.16567 -15.66567,-0.33233 -23.5,-0.5 -0.16567,-7.16581 -0.33233,-14.33233 -0.5,-21.5 -7.83249,0.16767 -15.66567,0.33433 -23.5,0.5 -0.33234,-7.83249 -0.66567,-15.66567 -1,-23.5 z" />
</svg>
